<svg xmlns="http://www.w3.org/2000/svg" viewBox="0 0 110 82.48"><g id="Layer_2" data-name="Layer 2"><g id="about-us"><path d="M28.47,15.33a6.89,6.89,0,0,0-9.68.88L1.6,36.83a6.87,6.87,0,0,0,0,8.81L18.79,66.26a6.87,6.87,0,1,0,10.6-8.75l-.05,0L15.82,41.24,29.34,25A6.89,6.89,0,0,0,28.47,15.33Z"/><path d="M63.22.12a7,7,0,0,0-8.09,5.4L41.39,74.27a6.85,6.85,0,0,0,5.36,8.07h0a6.21,6.21,0,0,0,1.36.13A6.87,6.87,0,0,0,54.87,77L68.61,8.21A6.85,6.85,0,0,0,63.25.13Z"/><path d="M108.4,36.83,91.21,16.21A6.87,6.87,0,1,0,80.61,25l0,.06L94.18,41.24,80.66,57.46a6.87,6.87,0,0,0,10.5,8.86l0-.06L108.4,45.64A6.87,6.87,0,0,0,108.4,36.83Z"/></g></g></svg>