<svg xmlns="http://www.w3.org/2000/svg" viewBox="0 0 118 102"><defs><style>.cls-1{fill:none;stroke:#313131;stroke-linecap:round;stroke-linejoin:round;stroke-width:5px;}</style></defs><g id="Layer_2" data-name="Layer 2"><g id="about-us"><path class="cls-1" d="M102.94,81.15H15.06c-2.31,0-4.19-2.36-4.19-5.24V7.74c0-2.88,1.88-5.24,4.19-5.24h87.88c2.31,0,4.19,2.36,4.19,5.24V75.91C107.13,78.79,105.25,81.15,102.94,81.15Z"/><rect class="cls-1" x="18.19" y="9.05" width="83.7" height="62.92"/><path class="cls-1" d="M113.41,99.5H4.59A2.4,2.4,0,0,1,2.5,96.88V91.64A2.41,2.41,0,0,1,4.59,89H113.41a2.41,2.41,0,0,1,2.09,2.63v5.24A2.4,2.4,0,0,1,113.41,99.5Z"/></g></g></svg>