<svg xmlns="http://www.w3.org/2000/svg" viewBox="0 0 115 115"><defs><style>.cls-1{fill:none;stroke:#000;stroke-linecap:round;stroke-linejoin:round;stroke-width:5px;}</style></defs><g id="Layer_2" data-name="Layer 2"><g id="about-us"><path class="cls-1" d="M90.66,60.46h2.61c9,0,17.32,4.69,18.92,11.54,2.1,9-6.78,16.84-18,16.84H90.66"/><path class="cls-1" d="M78.44,112.5h-55c-6.75,0-12.22-4.24-12.22-9.46V53.36c0-1.31,1.37-2.37,3-2.37H87.61c1.69,0,3,1.06,3,2.37V103C90.66,108.26,85.19,112.5,78.44,112.5Z"/><path class="cls-1" d="M87.33,2.5C93.64,10,84.27,14,82.12,18c-2.26,3.65-.27,8,4.45,9.77.31.11.63.21,1,.3C105.25,33.9,110.53,6.84,87.33,2.5Z"/><line class="cls-1" x1="69.72" y1="49.51" x2="85.67" y2="27.33"/><line class="cls-1" x1="91.97" y1="28.96" x2="81.94" y2="49.51"/><polygon class="cls-1" points="33.06 50.99 14.72 50.99 5.56 36.8 2.5 22.61 17.78 29.7 33.06 50.99"/><line class="cls-1" x1="5.56" y1="35.32" x2="17.78" y2="28.22"/><path class="cls-1" d="M63.16,3.68H44.83c-1.69,0-3.06,1.06-3.06,2.37V51H66.22V6.05C66.22,4.74,64.85,3.68,63.16,3.68Z"/><line class="cls-1" x1="66.22" y1="13.14" x2="54" y2="13.14"/><line class="cls-1" x1="66.22" y1="22.61" x2="60.11" y2="22.61"/><line class="cls-1" x1="66.22" y1="32.07" x2="54" y2="32.07"/><line class="cls-1" x1="66.22" y1="41.53" x2="60.11" y2="41.53"/></g></g></svg>