<svg xmlns="http://www.w3.org/2000/svg" viewBox="0 0 28.36 18"><defs><style>.cls-1{fill:#a8a8a8;}</style></defs><g id="Layer_2" data-name="Layer 2"><g id="header"><g id="mail_email_e-mail_letter" data-name="mail email e-mail letter"><path class="cls-1" d="M27.52,6c-.58,0-1,.47-1.9,1v8.35c.86.58-.19,0-.19,0H4.57S3.52,16,0,15.41V7.06c3.52-.57,3.06-1,2.48-1s-1,.47.08,1v8.35a1.29,1.29,0,0,0-.21,2.21c.59.59,2.22.32,2.22.32H25.43s1.63.27,2.22-.32a1.94,1.94,0,0,0,.54-2.21V7.06C28.56,6.49,28.1,6,27.52,6Z"/><path class="cls-1" d="M14.37,12.31a1,1,0,0,0,1.26,0L28,3.07a1,1,0,0,0,.31-1.29,3.06,3.06,0,0,0-.61-.86A3.14,3.14,0,0,0,25.43,0H4.57A3.14,3.14,0,0,0,2.35.92a3.06,3.06,0,0,0-.61.86,1.05,1.05,0,0,0,.31,1.29ZM4.57,2.56H25.43a1.5,1.5,0,0,1,.3,0L15,10.65,4.27,2.56A1.5,1.5,0,0,1,4.57,2.56Z"/></g></g></g></svg>