<svg xmlns="http://www.w3.org/2000/svg" viewBox="0 0 85.72 80"><defs><style>.cls-1{font-size:44.45px;}.cls-1,.cls-2,.cls-3{fill:#e9b928;}.cls-1,.cls-2{font-family:Montserrat-SemiBold, Montserrat;font-weight:600;}.cls-2{font-size:40.49px;}</style></defs><g id="Layer_2" data-name="Layer 2"><g id="footer"><text class="cls-1" transform="translate(65.68 37.78) scale(0.54 1)">A</text><text class="cls-2" transform="translate(66.24 69.51) scale(0.61 1)">F</text><path class="cls-3" d="M0,5.31V29.22c3.16-1.87,8.63-5.07,8.78-6.07A16.16,16.16,0,0,1,10,19.69c.35-1.07,3.11-3.74,3.11-3.74a8,8,0,0,0,1.59-3.22c.23-1.6.12-2.14.57-2.67s1.33-1.6,2.84.58c.68,1,.37,1.74.06,3.2C17.75,16,17,16,17.16,16.92l0,.12c.23,1.07.22,3.25,3.11,2.89a9.7,9.7,0,0,0,3.78-1.29c.48-.26,1.91-.89,3.38-1.54s3.13-1.39,3.67-1.66c2-1.07,3.59,1.6,2.59,2.13L32,18.48a49.93,49.93,0,0,0-4.72,2.83c-2,1.49-1.67,2.67.52,2.67H38.66s3.18,1.23.56,2.91a8,8,0,0,1-3.46.83,48,48,0,0,1-8.19-.31s-3.42.58-.26,1.72a37.49,37.49,0,0,0,7.11,1.64c.35,0,.64.08.85.08h1.78c2.71.1,3.14,2.13-.69,2.13a25,25,0,0,1-3.91-.41c-2.34-.39-4.65-.93-5.43-1.12a1,1,0,0,0-.55,0c-.66.18-2,.78.14,2.07.84.49,1.5.87,2.07,1.18A21,21,0,0,0,32,36.14c2.93,1.07,3.24,2.66,1,2.66-2.35,0-6.56-2.48-8.32-3.44-.24-.13-.43-.23-.57-.29a28.66,28.66,0,0,0-7.45-.92,11.89,11.89,0,0,0-3.6.39,12,12,0,0,0-4.41,2.67C7.13,38.56,6.4,39.34,5,40.41c-1.14,1-3.39,2.63-5,4v27H85.72V5.31ZM43.36,39a20.62,20.62,0,0,0,5.12-4,16.92,16.92,0,0,0,3.33-5.17A16.47,16.47,0,0,0,53,23.57Q53,7.73,31.66,6.12h30V70.61h-.41L47.91,52c-.71-1-1.49-2-2.36-3.07A30,30,0,0,0,42.83,46a21.48,21.48,0,0,0-2.94-2.37,10.78,10.78,0,0,0-3.15-1.48l-.1-.55A29,29,0,0,0,43.36,39ZM16.6,70.61l0-24.29h4.74a7,7,0,0,1,2.84.59,9.13,9.13,0,0,1,2.47,1.63A19.76,19.76,0,0,1,29,51.1c.76,1,1.58,2.14,2.42,3.41l10.89,16.1Zm68.3,0H63.27V40H84.9Zm0-32.24H63.27V6.12H84.9Z"/></g></g></svg>