<svg xmlns="http://www.w3.org/2000/svg" viewBox="0 0 40.86 40"><defs><style>.cls-1{fill:#a8a8a8;}.cls-2,.cls-3{fill-rule:evenodd;}.cls-2{isolation:isolate;opacity:0.3;}.cls-3{fill:#fff;}</style></defs><g id="Layer_2" data-name="Layer 2"><g id="footer"><circle class="cls-1" cx="20.86" cy="20" r="20"/><path class="cls-2" d="M11.05,12.52l18.85-.08,1.05.78V25.88L22.4,39.34h0C10.19,40.22,0,31,0,19.4v-.07Z"/><path class="cls-3" d="M31.9,13.82c0,1,0,12,0,12S31.66,27,30.62,27c-3.51,0-15.84.15-17.32.13a1.33,1.33,0,0,1-1.4-1.3V14c0-1.34,1.69-1.43,1.69-1.43l17-.13S32,12.82,31.9,13.82Zm-.95.85s-.28-1.38-1.45-1.31c-1.23.81-7.85,5.69-7.85,5.69L13.8,13.48s-1.49-.07-1.45,1.19c0,1.1,0,11.14,0,11.14s.34.87,1.94.83l.11-9.7,7.15,4.79,7-4.67.13,9.76c1.91,0,2.25-.91,2.25-.91Z"/></g></g></svg>