<svg xmlns="http://www.w3.org/2000/svg" viewBox="0 0 40 40"><defs><style>.cls-1{fill:#a8a8a8;}.cls-2,.cls-3{fill-rule:evenodd;}.cls-2{isolation:isolate;opacity:0.3;}.cls-3{fill:#fff;}</style></defs><g id="Layer_2" data-name="Layer 2"><g id="footer"><circle class="cls-1" cx="20" cy="20" r="20"/><path class="cls-2" d="M11.16,10.51.56,15.27A20.48,20.48,0,0,0,0,20,20,20,0,0,0,26.87,38.79L30,29.64s-2.36-8.12-2.87-10.26c-6.69-.53-10-3.05-10-3.05l-2.89,2.19-4-2,3-2Z"/><path class="cls-3" d="M30,29.6h-4.5V21c.34-.25-.34-1.3-1.89-1.34a2.06,2.06,0,0,0-2.23,1.49c0,.26,0,8.35,0,10.07H17.15v-15h3.34v1.35c.59,0,2.3-1.79,5.19-1.79S30,19,30,19.4,30,29.6,30,29.6ZM12.24,14.81a2.25,2.25,0,1,1,2.24-2.25A2.24,2.24,0,0,1,12.24,14.81ZM15.49,29.6h-5V16.26h5Z"/></g></g></svg>