<svg xmlns="http://www.w3.org/2000/svg" viewBox="0 0 363.12 77.52"><defs><style>.cls-1,.cls-2{fill:#e9b928;}.cls-2{font-size:46.55px;font-family:Ebrima-Bold, Ebrima;font-weight:700;}.cls-3{font-size:22.63px;fill:#606060;font-family:Ebrima;}</style></defs><g id="Layer_2" data-name="Layer 2"><g id="header"><path class="cls-1" d="M45.86,39.27v.08A9.58,9.58,0,0,1,49,41a17.69,17.69,0,0,1,2.73,2.6,27.71,27.71,0,0,1,2.37,3.24c.73,1.15,1.37,2.27,1.95,3.37l11,21.12H46.35L37.46,52.9c-.65-1.39-1.29-2.64-1.94-3.74a16.61,16.61,0,0,0-2.07-2.8,7.84,7.84,0,0,0-2.36-1.8,6.81,6.81,0,0,0-3-.65H23.26L18,71.3H0L5.46,43a50.93,50.93,0,0,1,6.14-5.6c1.8-1.18,2.76-2,4.8-3.51A17.06,17.06,0,0,1,21.81,31a13.76,13.76,0,0,1,4-.43,29.15,29.15,0,0,1,8,1q.21.11.57.33c1.73,1,5.82,3.77,8.41,3.77,2.41,0,2.41-1.75-.6-2.93a18,18,0,0,1-3.37-1.61c-.56-.34-1.21-.76-2-1.3-2-1.41-.48-2.06.28-2.27a1.26,1.26,0,0,1,.61,0c.81.21,3.23.81,5.73,1.23a26.84,26.84,0,0,0,4.2.45c4.21,0,4.17-2.22,1.21-2.34H46.43c-.22,0-.51,0-.87-.08a35.17,35.17,0,0,1-7-1.68c-3-1.19.61-1.78.61-1.78a49.92,49.92,0,0,0,8.38.32,9.65,9.65,0,0,0,3.73-.87c3-1.72,0-3,0-3H39.89c-2.41,0-2.56-1.3,0-2.94,1.34-.87,3.69-2.07,5.79-3.11l2-1c1.21-.58,0-3.52-2.41-2.35-.65.3-2.52,1.08-4.38,1.83s-3.47,1.41-4,1.7a12.9,12.9,0,0,1-4.44,1.42c-3.25.39-2.78-2-2.8-3.18v-.14c.05-1,.85-1.05,1.8-3.39.65-1.6,1.15-2.47.6-3.52-1.2-2.35-2.4-1.18-3-.59s-.59,1.16-1.18,2.92A11.15,11.15,0,0,1,25.44,11s-3.61,2.94-4.21,4.11a21.48,21.48,0,0,0-2.11,3.82c-.46,1.33-7.14,5-10.32,6.73L13.73,0H42.28Q71.4,0,67.65,19.42a21.32,21.32,0,0,1-2.6,6.89A24.52,24.52,0,0,1,60.3,32a29.72,29.72,0,0,1-6.49,4.38A38,38,0,0,1,45.86,39.27Z"/><text class="cls-2" transform="translate(77.16 44.52)">RUHULAMIN</text><text class="cls-3" transform="translate(77.62 70.3) scale(0.97 1)">FREELANCE WEB DEVELOPER</text></g></g></svg>