<svg xmlns="http://www.w3.org/2000/svg" viewBox="0 0 40 40"><defs><style>.cls-1{fill:#a8a8a8;}.cls-2,.cls-3{fill-rule:evenodd;}.cls-2{isolation:isolate;opacity:0.3;}.cls-3{fill:#fff;}</style></defs><g id="Layer_2" data-name="Layer 2"><g id="footer"><circle class="cls-1" cx="20" cy="20" r="20"/><path class="cls-2" d="M21.64,10.94l2.81,3.75,7.27-1.41-5.87,7.46L27.23,24,16.45,39.69a20,20,0,0,1-16-23.75l9-5.07A13.57,13.57,0,0,0,14,16.8Z"/><path class="cls-3" d="M32.27,12.45l-2.65.8a6.85,6.85,0,0,0,2.09-2.94,8.78,8.78,0,0,1-3.33,1.27c-.64-1.83-8.73-3.71-8.73,4.51-2,.55-7.69-1.74-10.25-5.22a4.83,4.83,0,0,0,1.49,6.84c-.43,0-1-.31-2.12-.57a5.16,5.16,0,0,0,3.93,5,9.16,9.16,0,0,1-2.19,0,5.3,5.3,0,0,0,4.56,3.57s-1.71,2-7.26,2C16.29,33.1,29.45,28.86,30,15.06A7.94,7.94,0,0,0,32.27,12.45Z"/></g></g></svg>