<svg xmlns="http://www.w3.org/2000/svg" viewBox="0 0 123.96 123.96"><defs><style>.cls-1{fill:#e9b928;}.cls-2{fill:none;stroke:#e9b928;stroke-miterlimit:10;stroke-width:10px;}</style></defs><g id="Layer_2" data-name="Layer 2"><g id="Layer_5" data-name="Layer 5"><path class="cls-1" d="M59.73,72.38H50.45V97.52H33.32V26.43h28q12.65,0,19.78,5.61T88.2,47.89q0,7.41-3,12.29a21.37,21.37,0,0,1-9.4,7.91l14.84,28.7v.73H72.28ZM50.45,59.19H61.29c3.26,0,5.71-.85,7.35-2.57a9.9,9.9,0,0,0,2.47-7.17,10.07,10.07,0,0,0-2.49-7.22c-1.66-1.74-4.1-2.62-7.33-2.62H50.45Z"/><polygon class="cls-2" points="85.58 5 38.38 5 5 38.38 5 85.58 38.38 118.95 85.58 118.95 118.95 85.58 118.95 38.38 85.58 5"/></g></g></svg>